<?xml version="1.0" encoding="utf-8"?>
<!DOCTYPE svg PUBLIC "-//W3C//DTD SVG 1.0//EN" "http://www.w3.org/TR/2001/REC-SVG-20010904/DTD/svg10.dtd">
<svg version="1.0" xmlns="http://www.w3.org/2000/svg" width="666px" height="666px" viewBox="0 0 666 666" preserveAspectRatio="xMidYMid meet">
 <g fill="#ffffff">
  <path d="M296.5 663.4 c-25.6 -2.9 -55.5 -10 -80 -19.1 -15.5 -5.8 -45 -20.3 -58.8 -29 -53.5 -33.8 -95.2 -79.9 -122.7 -135.7 -20.7 -42 -31 -80.7 -34.1 -128.1 -3.8 -60.2 11.1 -125.6 40.8 -178.9 49.9 -89.3 136.3 -150.7 235.8 -167.5 57 -9.6 113.4 -4.5 169 15.4 20 7.1 50.5 22.6 69.6 35.4 83.6 55.8 137 143.9 147.5 243.1 2.2 21 1.5 60.5 -1.5 80 -7.1 47.1 -22.1 88.8 -46 127.5 -14.4 23.4 -28.7 41.3 -49.5 62 -51.4 51.2 -114.5 82.7 -187.4 93.6 -18.4 2.8 -63.5 3.5 -82.7 1.3z m61.5 -12.4 c110.5 -10 206.8 -74.7 258.2 -173.6 40.6 -78.1 46.8 -167.9 17.3 -249.9 -5.8 -16.1 -18.8 -43.1 -28.4 -59 -48.3 -79.6 -130.3 -135.2 -221.6 -150.4 -21.3 -3.5 -34.6 -4.4 -58.4 -3.8 -45.2 1.1 -85.4 10.6 -125.9 29.8 -35.1 16.6 -62.6 36.1 -90.8 64.3 -28.2 28.2 -47.7 55.7 -64.3 90.8 -19.3 40.7 -28.7 80.5 -29.8 125.9 -0.6 23.8 0.3 37.1 3.8 58.4 23.7 142.8 143.1 253.9 287.4 267.4 13.1 1.2 39.3 1.2 52.5 0.1z"/>
  <path d="M251.5 592.6 c-3.2 -3.2 -4.4 -7.9 -5.6 -22.1 -1.3 -13.8 -0.6 -63 0.9 -68.8 0.8 -2.8 3.7 -6.6 11.4 -14.5 11.9 -12.3 22.8 -25.7 31.7 -38.9 6.6 -10 8.2 -11.3 13.4 -11.3 4.9 0 6 1.9 5.5 8.9 -0.4 5.4 -0.3 5.9 1.3 5 1 -0.5 3.8 -0.9 6.3 -0.9 2.5 0 4.6 -0.2 4.6 -0.5 0 -0.3 -2.3 -4 -5 -8.1 -7.4 -10.8 -9 -15.2 -9 -24 0 -6.7 0.3 -7.6 2.9 -10.6 2.9 -3.2 3.2 -3.3 12.1 -3.7 15.6 -0.6 34.2 4.3 41 10.8 3.9 3.7 4 4 4 10.5 0 7.5 -0.3 8.3 -6.7 17 -2.5 3.4 -6.1 9.3 -8 13.1 -1.9 3.9 -4.4 8 -5.6 9.3 -2.8 3.1 -8.3 2.9 -13.2 -0.4 -2.6 -1.7 -3.6 -2 -3.2 -0.9 1.6 4 2.9 15.4 2.4 20.7 -0.7 7.8 -3.7 13.7 -14.7 28.8 -12.1 16.5 -21.7 31.8 -33 52.5 -15.2 27.8 -17.5 30.5 -25.7 30.5 -4.3 0 -5.9 -0.5 -7.8 -2.4z"/>
  <path d="M445.6 583 c-14.9 -8.7 -33.8 -23.1 -52 -39.6 -16.8 -15.1 -27.9 -27.7 -38 -42.8 -11.1 -16.7 -12.1 -25.3 -4.8 -40.8 6.5 -13.5 11.4 -17.1 20.6 -15.4 5.3 1 8 3.8 14.8 15.3 l6.3 10.8 0.5 -5.5 c0.3 -3 0.9 -6.1 1.3 -6.7 0.5 -0.8 3 -1.3 6.1 -1.3 10.7 0 17.8 7.3 30.2 31.2 21.8 41.9 32.9 66.5 35.1 78.1 1.7 8.9 1.2 18.5 -0.9 19.8 -0.7 0.5 -3.8 0.9 -6.8 0.9 -4.7 0 -6.6 -0.6 -12.4 -4z"/>
  <path d="M211.7 516.5 c-3.3 -3.3 -3.4 -28.7 -0.2 -42.5 6.8 -28.9 17.7 -47.8 35 -60.8 l3 -2.2 -4.5 1.9 c-8 3.2 -32.9 15 -54.5 25.6 -21.7 10.6 -41.1 22.7 -50.6 31.2 -15 13.7 -22.4 18.3 -28.9 18.3 l-4 0 0 -7.9 c0 -13.6 3.7 -25.8 13.6 -45.3 15.1 -29.4 37.4 -56.8 56.4 -69.2 9 -6 13.8 -7.6 22 -7.6 l7 0 -4.4 -4 c-5.3 -4.9 -6.8 -8.3 -6.4 -14.1 l0.3 -4.4 25.9 -0.8 c28.6 -0.8 27.9 -0.9 31.2 5.5 0.8 1.5 3.6 5.2 6.4 8.4 4.6 5.3 5 6.1 5 10.9 0 3.6 -0.5 5.7 -1.6 6.6 -3.1 2.6 -30.6 2.1 -37.9 -0.7 -0.9 -0.4 -1.1 0.8 -0.7 4.6 0.4 4.1 0.1 5.7 -1.6 8 l-2.1 2.8 7.2 -2.6 c9.8 -3.4 28.3 -4.3 33.7 -1.5 6.8 3.5 9.3 14.6 4.7 21.4 -2 3 -7.6 7.7 -12.1 10.4 -1.3 0.7 0.4 1 6.1 1 l7.8 0 0.3 3.6 0.3 3.6 6.4 -6.4 c4 -4 7.5 -6.5 9.4 -6.9 3.7 -0.8 4 -2 0.9 -3 -3.7 -1.1 -10.1 -6.1 -12.5 -9.7 -3 -4.4 -4.7 -13.2 -3.9 -20 1.5 -11.9 9.9 -18.7 23 -18.7 6.7 0 11.6 0.8 16.1 2.5 1.7 0.7 1.5 0.3 -0.7 -2.1 -1.5 -1.6 -3.9 -5.5 -5.3 -8.7 -2.5 -5.5 -2.7 -6.5 -2.3 -18 0.3 -11.3 0.5 -12.6 3.3 -17.6 3.4 -6.2 9.6 -11.9 16.3 -15.2 4 -2 6.3 -2.3 15.7 -2.4 13.5 0 19.1 2.1 26 9.7 6.3 7 7.8 12.4 7.3 26.1 -0.4 13.2 -2.4 18.4 -9.8 25.7 -7.5 7.5 -12.5 9.4 -25.5 9.4 -6 0.1 -12 -0.3 -13.3 -0.7 -2.1 -0.8 -2 -0.5 1 4.4 2.8 4.4 3.3 6.4 3.6 12.6 0.5 9.8 -0.3 13.4 -3.8 17 -4.5 4.6 -9.6 6.6 -18.5 7.3 -4.4 0.4 -7.2 0.8 -6.3 0.8 1 0.1 2.6 1.2 3.8 2.4 2.8 3 2.8 13.6 0 21.2 -8.9 23.8 -48.3 70.8 -73.6 87.9 -6 4 -11.1 4.8 -13.7 2.2z"/>
  <path d="M448.5 482.8 c-1.1 -0.6 -7.4 -5 -14 -9.8 -6.6 -4.8 -15.9 -11 -20.6 -13.8 -16.3 -9.7 -38 -25.5 -41.2 -29.9 -3.1 -4.4 -4.6 -11.7 -3.3 -16.7 1.3 -5.1 9.4 -7 17.4 -4.2 l4 1.5 -2.4 -3.6 c-2.9 -4.3 -3.3 -12.5 -0.8 -16.1 1.2 -1.8 2.5 -2.2 6.8 -2.2 7.2 0 12 3.2 27.9 18.9 25.2 24.6 36 43.4 38.3 66 0.9 9 -0.2 11.1 -5.9 11.1 -2.3 0 -5.1 -0.6 -6.2 -1.2z"/>
  <path d="M533.9 444 c-51.2 -3.2 -81.2 -10 -94.6 -21.5 -3.8 -3.2 -4.3 -4.1 -4.3 -7.9 0 -2.3 0.5 -4.7 1.2 -5.4 0.7 -0.7 3.9 -1.2 7.3 -1.2 l6 -0.1 -8 -3 c-4.4 -1.6 -13 -5.4 -19.1 -8.4 -15.9 -7.9 -21.4 -14.1 -21.4 -24.2 0 -9.8 5.1 -14.6 17.2 -16.3 13.4 -2 37.2 -0.8 58.4 3 24.6 4.4 51.3 16.6 85.9 39.5 25 16.5 35.5 27.2 35.5 36.1 0 4.6 -1.5 6.8 -5.9 8.6 -3.3 1.4 -40.1 1.9 -58.2 0.8z"/>
  <path d="M344.6 403.6 c-8.8 -3.3 -13.1 -11 -12.4 -22.5 0.3 -5.8 0.9 -7.7 3.4 -11.3 3.8 -5.5 11.7 -9.6 21.2 -11 18.3 -2.9 29.9 4.8 31 20.4 0.8 10.7 -4.1 18.4 -14.7 23 -6.1 2.7 -22.8 3.5 -28.5 1.4z"/>
  <path d="M383.6 355.5 c-5.2 -1.8 -10 -6.7 -12.1 -12.2 -1.3 -3.4 -1.6 -6.7 -1.3 -14.6 0.3 -8.7 0.7 -11.1 3.2 -16 4.1 -8.5 8.6 -11.2 18.5 -11.1 8.7 0.1 12.8 1.7 16.1 6.5 3.4 4.7 5 11.4 5 20.9 0 14.3 -4 23.4 -11.7 26.6 -4.1 1.8 -12.7 1.7 -17.7 -0.1z"/>
  <path d="M432.5 350.3 c-7.5 -0.9 -9.4 -1.5 -11.9 -3.8 -2.3 -2.1 -2.6 -3.2 -2.6 -8.6 0 -5.7 0.2 -6.4 3.4 -9.4 2.6 -2.4 5.6 -3.8 11.3 -5.3 l7.8 -2 -8.2 -0.1 c-13.5 -0.2 -17.3 -2.7 -17.3 -11.7 0 -7.1 2 -10.5 8.8 -15 11.5 -7.7 28.6 -13.7 53.5 -18.9 24.7 -5.1 40.5 -10.7 66.6 -23.8 l22.5 -11.2 7.5 0 7.6 0 0.3 6.2 c0.3 7.1 -2.1 14.4 -9 26.7 -25.6 45.4 -64.3 71.7 -112.7 76.6 -9.9 1 -21.2 1.1 -27.6 0.3z"/>
  <path d="M267.4 346.1 c-4.2 -1.1 -7.1 -3.2 -9.9 -7.3 -3.7 -5.5 -4.7 -10.5 -4.3 -21.4 0.3 -9.1 0.6 -10.5 3.3 -14.9 4.3 -6.8 8.8 -9 19.1 -9 7.1 0 8.5 0.3 12.2 2.8 2.7 1.7 5.2 4.6 6.9 8 2.4 4.6 2.7 6.3 2.8 15.2 0 7.9 -0.4 10.8 -1.9 13.8 -2.4 4.9 -7.1 9.6 -11.2 11.3 -4.2 1.8 -13 2.5 -17 1.5z"/>
  <path d="M178 341.1 c-16.3 -5.2 -38.5 -19.4 -53.1 -34 -13.1 -13.1 -22.2 -26.6 -33.6 -49.5 -7.4 -14.9 -8.4 -17.5 -8.1 -21.5 0.3 -4 0.6 -4.6 2.7 -4.9 4.5 -0.7 8.7 0.8 18.1 6.5 17.7 10.5 35.1 17.2 54 20.7 12.2 2.2 29.9 4.4 42 5.1 22.7 1.3 22.8 1.3 24 4.9 1.8 5.6 9.6 17.8 16.9 26.6 6.6 7.8 7.1 8.8 7.1 13.2 0 7.6 -1.2 8.1 -15.5 7.6 -6.6 -0.3 -11.5 -0.4 -11 -0.2 0.6 0.1 4.9 1.4 9.8 2.9 l8.7 2.6 0 4.3 c0 3.2 -0.5 4.6 -1.7 5.1 -1 0.5 -10.8 1.1 -21.8 1.4 -21.6 0.7 -24.1 1.3 -25.1 5.9 -0.3 1.5 -0.7 3.3 -1 4 -0.5 1.7 -5.9 1.4 -12.4 -0.7z"/>
  <path d="M361.5 297 c-11.1 -5.5 -16.5 -14 -16.5 -26.2 0 -8.9 1.9 -13 7.9 -17.3 3.9 -2.7 5 -3 14.4 -3.3 8.7 -0.3 11.1 -0.1 16.1 1.8 7 2.7 12.7 7.6 15.5 13.4 1.6 3.2 2.1 6.2 2.1 12.7 0 10.8 -1.7 14.4 -9 18.2 -4.7 2.4 -6.2 2.7 -15.9 2.7 -8.6 0 -11.4 -0.4 -14.6 -2z"/>
  <path d="M243.4 293.1 c-4.3 -2.6 -9.7 -10.4 -15.1 -21.8 -4.1 -8.7 -4.7 -10.8 -5.1 -18.2 -0.5 -9.4 -0.1 -10.1 6.1 -10.1 5.3 0 9.6 2.1 17.4 8.4 3.8 3 11 7.5 16.2 10 12.7 6.2 13.1 6.6 13.1 14 0 5.4 -0.4 6.6 -3.2 10 -1.7 2.1 -5.2 5.2 -7.7 6.7 -3.8 2.5 -5.5 2.9 -11.5 2.9 -5.2 0 -7.9 -0.5 -10.2 -1.9z"/>
  <path d="M300.9 292.1 c-8.8 -1.8 -14.3 -7.7 -15.4 -16.6 -1.3 -10.2 1.5 -17.5 8.4 -22.2 4.9 -3.3 9.4 -4.3 19.6 -4.3 16.5 0.1 23.5 6 23.5 19.8 -0.1 9.9 -4.9 17.1 -14.5 21.3 -4.6 2 -16.3 3.1 -21.6 2z"/>
  <path d="M410.5 285.9 c-4.5 -5.4 -6.5 -10.7 -6.5 -17.6 0 -6.2 0 -6.2 4.8 -10.3 4.9 -4.1 48.5 -34.1 53.5 -36.7 1.6 -0.8 4.7 -1.3 7 -1.1 4.2 0.3 4.2 0.3 4.5 4.7 0.9 12.3 -11.5 36.5 -26.4 51.3 -8.8 8.9 -15.2 12 -26 12.6 l-8 0.4 -2.9 -3.3z"/>
  <path d="M263 255.1 c-13.1 -4 -20.9 -14.2 -30.4 -39.7 -5.5 -14.8 -8.9 -27.4 -11.6 -42.9 -1.9 -11.1 -4.2 -21.7 -12.2 -56.5 -2.2 -9.8 -3.1 -16.2 -3.2 -23.6 -0.1 -12.7 0.4 -13.4 8.9 -13.4 6.1 0 6.5 0.2 11.5 4.6 2.8 2.6 8.1 8.6 11.8 13.3 12.6 16.3 21.3 25.7 47.1 50.9 25.9 25.1 34.2 34.7 42.2 48.4 6.4 10.8 8.1 17.4 7.7 28.9 -0.3 8.2 -0.6 10.1 -2.8 13.2 -3.4 5 -9.1 7.7 -16.3 7.7 -7.1 0 -11.5 -1.8 -19.2 -7.8 -5.5 -4.3 -5.8 -4.4 -3.7 -1.5 3.1 4.4 3.1 12.1 -0.1 15.1 -1.3 1.3 -3.9 2.7 -5.8 3.2 -3.9 1.2 -20.2 1.2 -23.9 0.1z"/>
  <path d="M390 253.3 c-0.8 -0.3 -2.5 -1.5 -3.7 -2.6 -2.5 -2.3 -3.1 -8.4 -1.3 -13.2 0.9 -2.5 0.7 -2.4 -4.7 1.5 -12.2 8.7 -27.5 9.4 -31.1 1.5 -1.8 -4 -1.5 -14.8 0.6 -20.3 2.4 -6.1 6.2 -11.8 17.4 -25.5 4.9 -6 22.9 -30.5 40 -54.5 17.1 -24.1 32.7 -45.2 34.6 -46.9 2.9 -2.9 4 -3.3 8.7 -3.3 8.9 0 9 1.2 4.5 36.8 -4.9 38.2 -9.2 59.1 -17 81.6 -9.5 27.6 -17.9 39.6 -30.7 44.2 -3.8 1.3 -14.4 1.8 -17.3 0.7z"/>
 </g>
 <g fill="#58b030">
  <path d="M302.5 653.9 c-65.2 -6.1 -127.4 -32.5 -178.5 -75.9 -63.9 -54.2 -103.6 -130.4 -112.1 -215.4 -1.7 -17.4 -0.7 -59.4 1.9 -76.1 9.1 -58.5 31 -108.7 67.2 -154.6 10.6 -13.4 37.5 -40.3 50.9 -50.9 39.2 -30.9 84.9 -52.8 131.8 -63 21.6 -4.7 35 -6.2 61.4 -6.7 27 -0.6 39.7 0.2 61.4 3.8 91.3 15.2 173.3 70.8 221.6 150.4 31.1 51.4 46.9 107.6 46.9 167.5 0 102 -47.3 196.1 -129.5 258 -47.5 35.8 -104.4 57.5 -164.5 63 -13.3 1.2 -45.4 1.1 -58.5 -0.1z m-36.8 -57.6 c7.8 -5.3 14.2 -14.8 24.7 -36.5 5.5 -11.2 20.3 -34.4 34 -53.3 3.6 -4.9 8 -12 9.8 -15.7 3 -6.2 3.6 -6.8 6.3 -6.8 2.7 0 3.4 0.8 7 7.2 16.8 30.3 69.7 80.2 102.5 96.8 7.7 3.9 11 3.8 15.5 -0.1 5.1 -4.6 6.2 -9.4 4 -19.4 -2.3 -10.7 -6.1 -19.7 -23.1 -54.4 -15.7 -32 -17 -36.1 -11.4 -36.1 1.6 0 5.1 1.3 7.8 3 8.7 5.3 11.8 6.3 15.1 4.6 1.8 -1 3.5 -3.1 4.5 -5.7 1.5 -3.7 1.6 -5.2 0.5 -11.3 -0.6 -3.9 -2.4 -10.7 -4 -15 -1.6 -4.4 -2.9 -9.5 -2.9 -11.3 0 -3.2 0.2 -3.3 3.8 -3.3 2 0 9.1 0.9 15.7 2 18.9 3.2 41.5 5.8 60.6 7.1 19.8 1.3 47.5 0.8 53.2 -1 4.6 -1.5 10 -6.1 11.7 -10 1.1 -2.6 0.9 -3.5 -1.6 -8.1 -7.9 -14.5 -42.7 -39.8 -79.9 -58 -13 -6.4 -33 -14 -36.9 -14 -1.4 0 -1.7 -0.8 -1.4 -3.6 l0.3 -3.6 10.5 -3.7 c29 -10.3 53.3 -28.7 71 -53.9 14 -19.9 21.5 -34.6 22.7 -44.2 0.5 -4.6 0.4 -5.1 -3 -8.5 -6 -6 -9.3 -5.2 -40.7 10.4 -12.6 6.3 -26.2 12.3 -32.8 14.4 -11.8 3.8 -36.7 9.5 -45.9 10.4 l-5.3 0.5 0 -3.5 c0 -2.4 1.2 -5.2 3.6 -8.8 10 -14.7 17.6 -37.9 14.3 -43.8 -0.8 -1.4 -2.5 -2.7 -3.7 -2.9 -3 -0.5 -12.6 4.1 -23.5 11.1 -5.6 3.7 -9.8 5.7 -11.7 5.7 -2.8 0 -3 -0.3 -3 -3.5 0 -1.9 1.1 -5.9 2.4 -9 3.9 -8.8 11.2 -32 14 -44.5 3.7 -16.6 6.3 -33.7 8.6 -56.2 2.7 -26.6 2.7 -29.2 -0.6 -32.5 -2 -2 -3.1 -2.4 -5.7 -1.9 -8.9 1.8 -16.8 10.9 -51.7 59.1 -9.6 13.2 -22.1 30.5 -27.9 38.5 -5.8 8 -13.9 18.9 -18 24.2 -7.1 9 -7.9 9.7 -11.2 9.8 -3.5 0 -3.5 0 -9.1 -11.3 -9.9 -19.8 -15.1 -26.1 -50.8 -61.7 -24.1 -24 -35 -35.6 -41.7 -44.5 -14.3 -19 -23.6 -26.4 -30.6 -24.4 -4.7 1.3 -8.4 5.5 -9.7 11 -1.5 6.1 -0.6 11.9 6.5 42.8 3 13 6.2 27.9 7.1 33.1 4.1 23.7 12.4 52 19 65.2 1.3 2.6 2.4 6.3 2.4 8.1 l0 3.5 -5.6 0.4 c-4.5 0.4 -6.1 1 -8.7 3.6 -2.8 2.8 -3.2 3.9 -3.5 10.2 l-0.4 7 -6.8 0 c-17.6 0 -49.5 -3.7 -65.8 -7.5 -12.2 -2.9 -19.1 -5.6 -40.9 -15.9 -8.9 -4.2 -17.5 -7.9 -19.2 -8.2 -3.6 -0.8 -7.1 1.7 -7.1 4.8 0 5.5 14.6 35.8 24.3 50.5 12.7 19.2 25.3 31.8 44.6 44.5 14.9 9.8 34.6 18.8 41.3 18.8 1.4 0 1.8 0.8 1.8 3.8 0 3.5 -0.4 3.9 -6.8 7.6 -26.9 15.7 -54.7 49.8 -72.3 89 -4.8 10.5 -8.9 25.7 -8.9 32.6 0 4.9 2.2 9 6.1 11 3.8 2.1 13.1 -3.4 28.9 -17 11 -9.4 21.3 -16.5 36.8 -25 15.7 -8.7 40.7 -20 44.2 -20 2.8 0 3 0.3 3 3.6 0 2 -1.5 7 -3.4 11.2 -4.9 11.3 -10.4 28.8 -12.2 39.4 -2.9 16.9 -0.4 32.1 6.1 36.4 3.5 2.3 8.5 0.8 16.3 -5.1 4.2 -3.2 6.9 -4.5 9.2 -4.5 l3.3 0 -0.6 14.3 c-0.8 18.1 0.7 48.4 2.8 56.2 2.9 11.1 9.2 18.4 15.6 18.5 1.4 0 4.4 -1.2 6.6 -2.7z"/>
 </g>
 <g fill="#000000">
  <path d="M255.5 602.1 c-7.3 -1.8 -12.1 -7.8 -15 -18.6 -2.1 -8 -3.8 -40.6 -2.9 -57.5 0.6 -11.4 0.5 -13.3 -0.7 -12.4 -7.7 6.1 -11.9 8.6 -16.5 10 -5.1 1.5 -5.7 1.4 -9.2 -0.3 -6 -2.9 -8.5 -9.1 -9 -22.7 -0.7 -17.6 4 -38.4 13.5 -59.9 1.9 -4.3 3.3 -8 3.1 -8.2 -0.6 -0.6 -31.3 14.1 -41.9 19.9 -15 8.4 -25.1 15.3 -35.9 24.6 -20.5 17.7 -30 21.6 -37 15.3 -4.5 -4.1 -5.4 -9.4 -3.5 -20.6 2.1 -12.1 5.5 -21.8 12.5 -35.9 18.9 -37.7 44.1 -66.8 70.7 -81.9 4.6 -2.6 5.4 -3.9 2.5 -3.9 -6.7 0 -26.4 -9 -41.3 -18.8 -19.3 -12.7 -31.9 -25.3 -44.6 -44.5 -6.7 -10.2 -17.1 -30.2 -21.8 -42.2 -5.2 -13.1 -3.2 -20.1 5.8 -19.9 4.5 0.1 9.2 2 33.5 13.3 15.7 7.3 26.3 10.9 39.9 13.5 10.2 1.9 31.8 4.3 46.7 5.2 l11.8 0.7 -0.6 -3 c-1 -4.5 1.2 -11.7 4.5 -14.9 2.2 -2.1 4.1 -2.8 8.4 -3.2 3 -0.2 5.5 -0.6 5.5 -0.9 0 -0.2 -1.1 -2.5 -2.4 -5.1 -6.6 -13.2 -14.9 -41.5 -19 -65.2 -0.9 -5.2 -4.2 -20.3 -7.2 -33.5 -6.9 -29.8 -8.2 -39.4 -6.6 -47.3 1.5 -7.3 5.8 -11.7 12.6 -12.7 10 -1.5 18.8 4.9 33.9 24.9 6.8 9 17.4 20.4 41.7 44.6 35.7 35.6 40.9 41.9 50.8 61.8 3.1 6.1 5.8 11.2 6.1 11.2 0.9 -0.1 14.2 -17.4 26.2 -34 5.8 -8 18.3 -25.3 27.9 -38.5 33.8 -46.7 42 -56.2 50.9 -58.9 8.1 -2.4 13.3 -0.2 15.1 6.4 1.9 7.1 -4.7 63.4 -10.6 90 -2.8 12.5 -10.1 35.7 -14 44.5 -1.3 3.1 -2.4 5.8 -2.4 6 0 0.3 3.9 -2.1 8.8 -5.2 10.6 -6.9 19.9 -11.3 25.1 -12 3.3 -0.5 4.4 -0.1 6.5 2 2.1 2.1 2.6 3.6 2.6 7.7 0 12.5 -6.3 30.6 -15.4 43.9 -2 3 -3.5 5.6 -3.2 5.8 0.2 0.2 2.1 0 4.2 -0.6 2.2 -0.5 9.6 -2.1 16.5 -3.5 19.5 -3.9 33.3 -8.9 56.9 -20.6 23.8 -11.8 25.4 -12.5 32.3 -14 9 -1.9 16 1.8 17.7 9.7 2.5 10.7 -8.3 33.5 -28 59.3 -15.7 20.5 -40.3 38.1 -65.5 46.9 -4.9 1.7 -9.7 3.4 -10.5 3.7 -0.8 0.3 2.3 1.7 6.9 3 29.2 8.5 77.2 36.1 99 56.9 13.5 12.9 17.1 21.8 11.9 29.5 -5.7 8.3 -12.1 10 -38.3 10 -29.4 0 -56.1 -2.3 -89.4 -7.6 -8.5 -1.3 -15.6 -2.3 -15.8 -2.1 -0.2 0.2 0.8 3.5 2.3 7.3 2.9 7.9 5.4 19.6 5.4 25.7 0 2.3 -0.9 6 -1.9 8.3 -3.5 7.8 -11.5 8.3 -23.2 1.6 -3.8 -2.2 -6.9 -3.9 -6.9 -3.8 0 0.2 6.5 13.5 14.4 29.7 16.8 34.3 20.8 43.5 23.1 54.3 4 18 -1.3 29.2 -13.8 29 -6.2 -0.1 -13.2 -3.4 -27.2 -12.9 -34.5 -23.3 -70.2 -58.9 -85.8 -85.3 l-5.3 -9 -3.3 6.7 c-1.7 3.6 -6.1 10.7 -9.7 15.6 -14.3 19.7 -28.4 42 -35.2 55.6 -14.9 30.2 -24.6 39.9 -36.7 37z m9 -12.8 c4.2 -4.2 7.4 -9.3 17.5 -27.8 11.1 -20.4 21.1 -36.3 32.3 -51.6 14.8 -20.2 16.7 -25.1 14.7 -36.6 -2.7 -16 -9.6 -23.8 -16.6 -18.9 -2.9 2.1 -12.9 17.4 -18.4 28.2 -4.6 8.9 -10.3 22.8 -13.6 33.2 -0.9 2.8 -1.9 5.2 -2.2 5.2 -1.1 0 0.8 -11.9 3.3 -20.5 3.5 -12 8.4 -23.3 16.7 -38.8 7.5 -13.8 9 -18.5 6.5 -20.6 -2.6 -2.1 -5.2 0.2 -11.8 10.2 -8.9 13.2 -19.8 26.6 -31.7 38.9 -7.7 7.9 -10.6 11.6 -11.4 14.5 -1.5 5.9 -2.2 49.3 -0.9 62.8 1.2 14.2 2.4 18.9 5.6 22.1 3.2 3.2 6.6 3 10 -0.3z m197.1 -6.1 c3.8 -2.4 1.7 -17.2 -4.5 -31.5 -4.8 -11.2 -19.4 -41.1 -29.5 -60.5 -8.8 -16.9 -14.1 -24.3 -20.4 -28.3 -5.7 -3.6 -8.9 -3.7 -10.3 -0.5 -2.2 4.7 -0.1 11.3 10.2 31.4 5.5 10.7 9.8 19.9 9.6 20.5 -0.7 2.1 -13.6 -17.2 -27.2 -40.7 -11.8 -20.4 -13.5 -22.8 -17.6 -24.9 -6.9 -3.4 -12.3 1.1 -18.8 15.6 -4.1 9.1 -4.5 11.8 -2.7 18 1.7 5.7 11.7 21.6 19.4 30.7 20.8 24.3 53.6 52.2 78.8 67 6.6 3.8 10.6 4.8 13 3.2z m-231.9 -77.4 c10.7 -8.5 29.1 -27.3 39.2 -40.1 26.3 -33.2 35.5 -55.7 24.2 -59.5 -8.1 -2.7 -18.2 6.9 -37.4 35.9 -6.2 9.3 -10.7 14.3 -10.7 11.8 0 -0.8 2.9 -6.6 6.5 -12.9 9.3 -16.3 13.8 -25.8 13.1 -27.5 -1 -2.6 -7.7 -1.9 -12.9 1.5 -17.8 11.2 -30.4 32.4 -37.1 62 -3.2 14.2 -3.2 33.3 0 36.5 2 2 4.6 0.6 15.1 -7.7z m-113.7 -22.8 c4.2 -2.1 12.2 -8.3 20.9 -16.3 13 -11.7 39.5 -26.8 80.6 -45.6 30.6 -14.1 36.8 -17.4 41.6 -22 2.6 -2.5 5 -5.8 5.4 -7.3 1 -3.9 -2.2 -9.9 -6.5 -12.1 -4.7 -2.4 -17.9 -1.8 -27 1.2 -10.9 3.7 -26.6 12 -38.2 20.3 -6 4.4 -11.5 7.7 -12.1 7.5 -1.7 -0.6 10.3 -11.6 21.8 -20 11.4 -8.2 18.5 -14.8 18.5 -16.9 0 -7.8 -19 -13.5 -30.2 -9.1 -6.3 2.4 -16.4 9.3 -24.3 16.5 -23.1 21.2 -48.9 63 -55 89.3 -1.7 7.6 -2 16.5 -0.5 16.5 0.6 0 2.8 -0.9 5 -2z m340.9 -3.9 c0.7 -1.2 0.7 -3.9 0.1 -7.6 -3.5 -21.4 -13.9 -38.4 -38.2 -62.1 -18.5 -18 -25.2 -21.6 -28.7 -15.3 -2.5 4.5 -0.7 7.4 12.4 20.1 11.3 10.9 19.2 20.4 18 21.6 -0.2 0.3 -3.1 -1.8 -6.3 -4.6 -8.5 -7.4 -24.5 -17.8 -30.2 -19.7 -4.4 -1.5 -5.1 -1.5 -7.9 0 -5.3 2.7 -5.1 8.7 0.4 15.9 2.8 3.7 23.7 18.6 40.9 29.1 5.9 3.6 15 9.7 20.2 13.6 15.6 11.5 17.5 12.4 19.3 9z m-113.2 -18.3 c1.2 -1.3 3.7 -5.4 5.6 -9.3 1.9 -3.8 5.5 -9.7 8 -13.1 6 -8.1 6.7 -9.6 6.7 -14 0 -5.6 -5.7 -10.6 -15.7 -13.8 -11.4 -3.6 -19.4 -4.9 -26.4 -4.4 -5.4 0.4 -6.6 0.8 -9 3.6 -5.5 6.2 -3.6 14.2 6.9 29.9 8.4 12.5 13.8 19.1 17.5 21.4 4 2.4 3.9 2.4 6.4 -0.3z m246.5 -21.2 c6.2 -3 6 -5.8 -0.8 -14.3 -7 -8.6 -30.7 -25.6 -55.4 -39.5 -22.9 -13 -41.7 -20.5 -60 -23.8 -23.2 -4.1 -48.7 -5 -59.2 -1.8 -8.5 2.5 -12.7 10.1 -9.3 17.1 2.9 6.1 8.4 10.5 21 16.7 12.7 6.3 22.6 9.7 44.1 15.4 14 3.7 21.1 6.2 20.1 7.2 -0.8 0.9 -19.5 -1.4 -30.9 -3.7 -11.7 -2.4 -19.6 -2.2 -21.2 0.4 -0.9 1.6 -0.4 2.5 3.3 5.8 10.9 9.8 30.4 15.5 67 19.5 21.6 2.3 39.6 3.2 59.6 3 14.9 -0.2 18.6 -0.5 21.7 -2z m-218.9 -41.1 c14.5 -6.8 17.7 -20.6 7.1 -31.1 -7.3 -7.3 -18.9 -7.9 -31.4 -1.6 -9.8 4.9 -14.1 14.5 -10.6 23.5 2 5.3 6.1 9.4 11.2 11.3 5.8 2.2 16.8 1.2 23.7 -2.1z m-63.8 -0.8 c9.2 -3.6 12.7 -7.8 13.3 -15.9 1 -13.8 -10.1 -25 -26.5 -26.5 -5.4 -0.5 -6.9 -0.2 -11.5 2 -8.8 4.4 -12.7 12.5 -10.7 22.3 1.5 7.7 6.2 13.2 14.7 17.5 4.3 2.1 15.9 2.5 20.7 0.6z m-48.1 -34.6 c2.8 -2.3 1.8 -5.6 -3.4 -11.5 -2.8 -3.2 -5.6 -6.9 -6.4 -8.4 -3.1 -6 -4.5 -6.5 -15.8 -5.7 -5.7 0.4 -15.8 0.7 -22.5 0.6 -12.9 -0.2 -14 0.1 -12.9 4.5 1.5 6 11.3 13.6 22.4 17.6 12.9 4.5 34.6 6.2 38.6 2.9z m86.1 -7.2 c6.3 -3 13.4 -10 16.5 -16.4 3.2 -6.6 4 -19.1 1.5 -26.4 -2.2 -6.7 -9 -14.2 -15.7 -17.2 -7.3 -3.3 -19.2 -3.3 -26 0 -6.7 3.3 -12.9 9 -16.3 15.2 -2.5 4.6 -3 6.8 -3.3 14.5 -0.4 8.3 -0.2 9.7 2.3 15.3 3.3 7.2 10.3 14.1 16.8 16.5 6 2.3 17.8 1.5 24.2 -1.5z m52.8 -3.3 c14.7 -6.1 15.8 -38.8 1.6 -46.2 -4.8 -2.4 -12.3 -2 -16.9 1 -8.1 5.3 -12.5 22.4 -8.5 32.9 2.1 5.5 6.9 10.4 12.1 12.2 5 1.8 7.7 1.8 11.7 0.1z m58.8 -5.6 c34.2 -3.5 64.4 -18 87.4 -42.1 16.9 -17.6 35.2 -48.8 34.3 -58.2 -0.3 -3.1 -0.4 -3.2 -5 -3.1 -3.9 0 -8.4 1.9 -27 11.2 -26 13 -43.4 19.2 -68.3 24.2 -32.5 6.5 -57.8 18.2 -60.1 27.7 -1.8 6.9 4 11.3 14.7 11.3 13.3 0 39.1 -5.9 57 -13 11 -4.4 10.9 -4.4 10.9 -3 0 1.2 -16.8 9.3 -29.9 14.4 -5.1 2.1 -17 5.5 -26.3 7.8 -14.9 3.5 -17.3 4.4 -20.3 7.3 -2.6 2.4 -3.5 4.1 -3.5 6.4 0 3.9 3.8 7.8 8.4 8.6 10.2 1.6 15.3 1.7 27.7 0.5z m-172.3 -7.3 c17.1 -11.6 10.4 -43.2 -9.2 -43.2 -7 0 -12.4 3 -16.1 9 -6.5 10.5 -3.7 28.8 5.5 35.2 5.2 3.6 13.5 3.2 19.8 -1z m-96.8 -3.3 c0 -3.2 3.1 -6.2 7.2 -6.8 1.8 -0.3 11.2 -0.7 20.8 -0.9 9.6 -0.2 18.3 -0.7 19.3 -1.2 3.7 -1.6 1.6 -3.5 -7 -6 -15.8 -4.7 -31.6 -10.6 -41.8 -15.6 -11.3 -5.5 -25.5 -14.3 -25.5 -15.9 0 -0.9 2.2 -0.1 17 6.8 24.2 11.2 60.6 19.4 65.3 14.8 0.9 -1 1.7 -2.5 1.7 -3.4 0 -1 -3.2 -5.6 -7.1 -10.2 -7.3 -8.8 -15.1 -21 -16.9 -26.6 -1.2 -3.6 -1.3 -3.6 -24 -4.9 -20.3 -1.2 -44.1 -4.9 -58.7 -9.1 -10.4 -3 -25.7 -9.8 -35.6 -15.8 -12.4 -7.5 -16.7 -8.9 -16.7 -5.1 0 2.8 17.1 35.6 24.1 46 13.6 20.5 33.4 37.7 56.9 49.6 8.8 4.4 18.9 8 20.3 7.2 0.4 -0.2 0.7 -1.5 0.7 -2.9z m201 -43.1 c6.5 -3.5 9 -7.6 9 -15.2 0 -14.8 -13.7 -25.9 -30.8 -24.8 -6 0.3 -8 0.9 -11.4 3.3 -13.3 9.4 -8.8 28.8 8.7 37.4 6.3 3.2 17.7 2.8 24.5 -0.7z m-126.9 -4.2 c9.4 -5.9 13.5 -14.4 9.1 -18.5 -1 -0.9 -6.1 -3.7 -11.3 -6.2 -5.2 -2.5 -12.4 -7 -16.2 -10 -7.6 -6.2 -12.9 -8.8 -15.9 -7.8 -6.9 2.2 8 37.1 18.6 43.5 4.6 2.8 10.4 2.4 15.7 -1z m58.6 -2.7 c16.5 -7.8 17.5 -27 1.8 -33 -6 -2.2 -17.4 -1.6 -23.1 1.4 -8.2 4.2 -12.3 12.2 -10.5 20.3 2.9 12.9 17.4 18.1 31.8 11.3z m111.5 -3.8 c13.8 -6.5 32.1 -31.6 37.4 -51.2 2.1 -7.9 1.2 -9.6 -3.8 -7.2 -4.8 2.3 -48.5 32.1 -54 36.8 -3.9 3.3 -4.8 4.7 -4.8 7.3 0 4 2.8 10.2 6.5 14.6 2.7 3.2 3.1 3.3 8.1 2.8 2.8 -0.3 7.6 -1.7 10.6 -3.1z m-148.3 -30.6 c4.1 -1.2 8.1 -4.7 8.1 -7.1 0 -1 -3.1 -6.6 -7 -12.4 -12.2 -18.5 -23.7 -41.9 -22.8 -46.4 0.2 -0.9 2.6 2.6 5.3 7.7 9.8 18.4 29.3 41.4 39.6 46.6 6.3 3.1 9.9 3.3 15.3 0.6 12.1 -5.9 12.8 -22.8 1.7 -41.8 -8 -13.7 -16.3 -23.3 -42.2 -48.4 -25.8 -25.2 -34.5 -34.6 -47.1 -50.9 -9.1 -11.8 -16.1 -17.9 -20.3 -17.9 -1.8 0 -3.9 0.7 -4.6 1.7 -2.2 2.6 -1.4 14.3 2 29.3 1.6 7.4 4.6 20.5 6.5 29 1.9 8.5 4.5 20.9 5.6 27.5 2.7 15.5 6.1 28.1 11.6 42.9 9.5 25.5 17.3 35.7 30.4 39.7 3.6 1.1 14 1.1 17.9 -0.1z m120.4 -2.4 c12.8 -4.6 21.2 -16.6 30.7 -44.2 7.9 -22.8 12.7 -46.1 17.5 -85.8 2.1 -16.7 2.5 -22.4 1.6 -24.2 -1.5 -3.4 -5.2 -3.1 -9.3 0.9 -1.9 1.7 -17.5 22.8 -34.6 46.9 -17.1 24 -35.1 48.5 -40 54.5 -4.8 5.9 -10.3 13 -12.2 15.7 -11.7 17.2 -8.1 32.2 7 28.6 13.3 -3.2 27.1 -17.5 38.3 -39.5 3.9 -7.7 6.3 -11.3 7 -10.5 1.4 1.4 -10.3 27.5 -17.2 38.5 -2.2 3.4 -4.5 8 -5.2 10.3 -1.1 3.8 -1 4.4 0.7 6.3 3.6 4 9 4.9 15.7 2.5z"/>
 </g>
</svg>