<svg xmlns="http://www.w3.org/2000/svg" xmlns:xlink="http://www.w3.org/1999/xlink" width="666" zoomAndPan="magnify" viewBox="0 0 499.5 499.499998" height="666" preserveAspectRatio="xMidYMid meet" version="1.0"><path fill="#ffffff" d="M 222.152344 497.050781 C 202.972656 494.878906 180.570312 489.558594 162.210938 482.742188 C 150.597656 478.394531 128.496094 467.53125 118.15625 461.011719 C 78.070312 435.6875 46.828125 401.148438 26.222656 359.339844 C 10.714844 327.871094 2.996094 298.875 0.675781 263.363281 C -2.171875 218.257812 8.992188 169.253906 31.242188 129.320312 C 68.632812 62.414062 133.367188 16.410156 207.917969 3.820312 C 250.625 -3.371094 292.882812 0.449219 334.539062 15.359375 C 349.523438 20.679688 372.378906 32.292969 386.6875 41.882812 C 449.324219 83.691406 489.335938 149.699219 497.203125 224.027344 C 498.851562 239.761719 498.324219 269.355469 496.078125 283.964844 C 490.757812 319.253906 479.519531 350.5 461.613281 379.496094 C 450.824219 397.027344 440.109375 410.4375 424.523438 425.949219 C 386.011719 464.308594 338.734375 487.910156 284.117188 496.078125 C 270.328125 498.175781 236.539062 498.699219 222.152344 497.050781 Z M 268.230469 487.761719 C 351.023438 480.269531 423.175781 431.792969 461.6875 357.691406 C 492.105469 299.175781 496.753906 231.894531 474.648438 170.453125 C 470.304688 158.390625 460.5625 138.160156 453.371094 126.25 C 417.183594 66.609375 355.742188 24.949219 287.335938 13.5625 C 271.378906 10.9375 261.414062 10.265625 243.582031 10.714844 C 209.714844 11.539062 179.59375 18.65625 149.25 33.042969 C 122.953125 45.480469 102.347656 60.089844 81.21875 81.21875 C 60.089844 102.347656 45.480469 122.953125 33.042969 149.25 C 18.582031 179.746094 11.539062 209.566406 10.714844 243.582031 C 10.265625 261.414062 10.9375 271.378906 13.5625 287.335938 C 31.320312 394.332031 120.777344 477.570312 228.894531 487.6875 C 238.710938 488.585938 258.339844 488.585938 268.230469 487.761719 Z M 268.230469 487.761719 " fill-opacity="1" fill-rule="nonzero"/><path fill="#ffffff" d="M 188.4375 444.003906 C 186.039062 441.609375 185.140625 438.085938 184.242188 427.445312 C 183.265625 417.109375 183.789062 380.246094 184.914062 375.898438 C 185.515625 373.800781 187.6875 370.953125 193.457031 365.035156 C 202.371094 355.820312 210.539062 345.777344 217.207031 335.890625 C 222.152344 328.394531 223.351562 327.421875 227.246094 327.421875 C 230.917969 327.421875 231.742188 328.847656 231.367188 334.089844 C 231.070312 338.136719 231.144531 338.511719 232.34375 337.835938 C 233.089844 337.460938 235.191406 337.164062 237.0625 337.164062 C 238.9375 337.164062 240.507812 337.011719 240.507812 336.789062 C 240.507812 336.5625 238.785156 333.789062 236.761719 330.71875 C 231.21875 322.628906 230.019531 319.332031 230.019531 312.738281 C 230.019531 307.71875 230.246094 307.042969 232.191406 304.792969 C 234.367188 302.398438 234.589844 302.324219 241.257812 302.023438 C 252.945312 301.574219 266.882812 305.246094 271.976562 310.113281 C 274.898438 312.886719 274.976562 313.113281 274.976562 317.980469 C 274.976562 323.601562 274.75 324.199219 269.953125 330.71875 C 268.082031 333.265625 265.382812 337.6875 263.960938 340.535156 C 262.539062 343.457031 260.664062 346.527344 259.765625 347.503906 C 257.667969 349.824219 253.546875 349.675781 249.875 347.203125 C 247.925781 345.929688 247.175781 345.703125 247.476562 346.527344 C 248.675781 349.523438 249.648438 358.066406 249.277344 362.039062 C 248.75 367.882812 246.503906 372.300781 238.261719 383.617188 C 229.195312 395.980469 222.003906 407.441406 213.535156 422.953125 C 202.148438 443.78125 200.425781 445.804688 194.28125 445.804688 C 191.058594 445.804688 189.859375 445.429688 188.4375 444.003906 Z M 188.4375 444.003906 " fill-opacity="1" fill-rule="nonzero"/><path fill="#ffffff" d="M 333.867188 436.8125 C 322.703125 430.292969 308.542969 419.503906 294.90625 407.140625 C 282.316406 395.828125 274 386.386719 266.433594 375.074219 C 258.117188 362.5625 257.367188 356.117188 262.835938 344.503906 C 267.707031 334.390625 271.378906 331.691406 278.269531 332.964844 C 282.242188 333.714844 284.265625 335.8125 289.359375 344.429688 L 294.082031 352.523438 L 294.457031 348.402344 C 294.679688 346.152344 295.128906 343.832031 295.429688 343.382812 C 295.804688 342.78125 297.675781 342.40625 300 342.40625 C 308.015625 342.40625 313.335938 347.875 322.628906 365.785156 C 338.960938 397.175781 347.277344 415.609375 348.925781 424.300781 C 350.199219 430.96875 349.824219 438.160156 348.25 439.136719 C 347.726562 439.511719 345.402344 439.808594 343.15625 439.808594 C 339.636719 439.808594 338.210938 439.359375 333.867188 436.8125 Z M 333.867188 436.8125 " fill-opacity="1" fill-rule="nonzero"/><path fill="#ffffff" d="M 158.617188 386.988281 C 156.144531 384.515625 156.070312 365.484375 158.464844 355.144531 C 163.5625 333.492188 171.726562 319.332031 184.691406 309.589844 L 186.9375 307.941406 L 183.566406 309.367188 C 177.570312 311.761719 158.914062 320.605469 142.730469 328.546875 C 126.472656 336.488281 111.9375 345.554688 104.820312 351.921875 C 93.582031 362.1875 88.035156 365.632812 83.167969 365.632812 L 80.167969 365.632812 L 80.167969 359.714844 C 80.167969 349.523438 82.941406 340.382812 90.359375 325.773438 C 101.671875 303.746094 118.382812 283.214844 132.617188 273.925781 C 139.359375 269.429688 142.957031 268.230469 149.101562 268.230469 L 154.34375 268.230469 L 151.046875 265.234375 C 147.078125 261.5625 145.953125 259.015625 146.253906 254.671875 L 146.476562 251.375 L 165.882812 250.773438 C 187.3125 250.175781 186.789062 250.101562 189.261719 254.894531 C 189.859375 256.019531 191.957031 258.789062 194.054688 261.1875 C 197.503906 265.160156 197.800781 265.757812 197.800781 269.355469 C 197.800781 272.050781 197.425781 273.625 196.601562 274.300781 C 194.28125 276.25 173.675781 275.875 168.207031 273.777344 C 167.53125 273.476562 167.382812 274.375 167.683594 277.222656 C 167.980469 280.292969 167.757812 281.492188 166.484375 283.214844 L 164.910156 285.3125 L 170.304688 283.367188 C 177.648438 280.820312 191.507812 280.144531 195.554688 282.242188 C 200.648438 284.863281 202.523438 293.179688 199.074219 298.277344 C 197.578125 300.523438 193.382812 304.046875 190.011719 306.070312 C 189.035156 306.59375 190.308594 306.816406 194.582031 306.816406 L 200.425781 306.816406 L 200.648438 309.515625 L 200.875 312.210938 L 205.667969 307.417969 C 208.667969 304.421875 211.289062 302.546875 212.710938 302.246094 C 215.484375 301.648438 215.710938 300.75 213.386719 300 C 210.613281 299.175781 205.820312 295.429688 204.019531 292.730469 C 201.773438 289.433594 200.5 282.84375 201.097656 277.746094 C 202.222656 268.832031 208.515625 263.734375 218.332031 263.734375 C 223.351562 263.734375 227.023438 264.335938 230.394531 265.609375 C 231.667969 266.132812 231.519531 265.832031 229.871094 264.035156 C 228.746094 262.835938 226.949219 259.914062 225.898438 257.515625 C 224.027344 253.394531 223.875 252.648438 224.175781 244.03125 C 224.398438 235.5625 224.550781 234.589844 226.648438 230.84375 C 229.195312 226.199219 233.839844 221.929688 238.859375 219.457031 C 241.859375 217.957031 243.582031 217.730469 250.625 217.65625 C 260.738281 217.65625 264.933594 219.230469 270.105469 224.925781 C 274.824219 230.167969 275.949219 234.214844 275.574219 244.480469 C 275.273438 254.371094 273.777344 258.265625 268.230469 263.734375 C 262.613281 269.355469 258.867188 270.777344 249.125 270.777344 C 244.628906 270.855469 240.132812 270.554688 239.160156 270.253906 C 237.585938 269.65625 237.660156 269.878906 239.910156 273.550781 C 242.007812 276.847656 242.382812 278.347656 242.605469 282.992188 C 242.980469 290.335938 242.382812 293.03125 239.761719 295.730469 C 236.386719 299.175781 232.566406 300.675781 225.898438 301.199219 C 222.601562 301.5 220.503906 301.796875 221.179688 301.796875 C 221.929688 301.871094 223.125 302.695312 224.027344 303.597656 C 226.125 305.84375 226.125 313.785156 224.027344 319.480469 C 217.359375 337.3125 187.835938 372.527344 168.882812 385.339844 C 164.386719 388.335938 160.5625 388.9375 158.617188 386.988281 Z M 158.617188 386.988281 " fill-opacity="1" fill-rule="nonzero"/><path fill="#ffffff" d="M 336.039062 361.738281 C 335.214844 361.289062 330.496094 357.992188 325.550781 354.394531 C 320.605469 350.800781 313.636719 346.152344 310.113281 344.054688 C 297.902344 336.789062 281.644531 324.949219 279.246094 321.652344 C 276.921875 318.355469 275.800781 312.886719 276.773438 309.140625 C 277.746094 305.320312 283.816406 303.894531 289.808594 305.992188 L 292.808594 307.117188 L 291.007812 304.421875 C 288.835938 301.199219 288.535156 295.054688 290.410156 292.355469 C 291.308594 291.007812 292.28125 290.707031 295.503906 290.707031 C 300.898438 290.707031 304.496094 293.105469 316.410156 304.871094 C 335.289062 323.300781 343.382812 337.386719 345.105469 354.320312 C 345.777344 361.0625 344.953125 362.636719 340.683594 362.636719 C 338.960938 362.636719 336.863281 362.1875 336.039062 361.738281 Z M 336.039062 361.738281 " fill-opacity="1" fill-rule="nonzero"/><path fill="#ffffff" d="M 400.023438 332.667969 C 361.664062 330.269531 339.183594 325.175781 329.144531 316.558594 C 326.296875 314.160156 325.921875 313.484375 325.921875 310.640625 C 325.921875 308.914062 326.296875 307.117188 326.824219 306.59375 C 327.347656 306.070312 329.746094 305.695312 332.292969 305.695312 L 336.789062 305.617188 L 330.792969 303.371094 C 327.496094 302.171875 321.054688 299.324219 316.484375 297.078125 C 304.570312 291.160156 300.449219 286.511719 300.449219 278.945312 C 300.449219 271.601562 304.269531 268.007812 313.335938 266.734375 C 323.375 265.234375 341.207031 266.132812 357.09375 268.980469 C 375.523438 272.277344 395.527344 281.417969 421.453125 298.574219 C 440.183594 310.9375 448.050781 318.957031 448.050781 325.625 C 448.050781 329.070312 446.925781 330.71875 443.632812 332.066406 C 441.160156 333.117188 413.585938 333.492188 400.023438 332.667969 Z M 400.023438 332.667969 " fill-opacity="1" fill-rule="nonzero"/><path fill="#ffffff" d="M 258.191406 302.398438 C 251.597656 299.925781 248.375 294.15625 248.902344 285.539062 C 249.125 281.195312 249.574219 279.769531 251.449219 277.074219 C 254.296875 272.953125 260.214844 269.878906 267.332031 268.832031 C 281.042969 266.65625 289.734375 272.425781 290.558594 284.117188 C 291.160156 292.132812 287.488281 297.902344 279.546875 301.347656 C 274.976562 303.371094 262.460938 303.972656 258.191406 302.398438 Z M 258.191406 302.398438 " fill-opacity="1" fill-rule="nonzero"/><path fill="#ffffff" d="M 287.414062 266.359375 C 283.515625 265.007812 279.917969 261.339844 278.347656 257.21875 C 277.371094 254.671875 277.148438 252.199219 277.371094 246.277344 C 277.597656 239.761719 277.898438 237.960938 279.769531 234.289062 C 282.84375 227.921875 286.214844 225.898438 293.632812 225.972656 C 300.148438 226.046875 303.222656 227.246094 305.695312 230.84375 C 308.242188 234.367188 309.441406 239.386719 309.441406 246.503906 C 309.441406 257.21875 306.441406 264.035156 300.675781 266.433594 C 297.601562 267.78125 291.160156 267.707031 287.414062 266.359375 Z M 287.414062 266.359375 " fill-opacity="1" fill-rule="nonzero"/><path fill="#ffffff" d="M 324.050781 262.460938 C 318.429688 261.789062 317.007812 261.339844 315.132812 259.613281 C 313.410156 258.042969 313.1875 257.21875 313.1875 253.171875 C 313.1875 248.902344 313.335938 248.375 315.734375 246.128906 C 317.683594 244.332031 319.929688 243.28125 324.199219 242.15625 L 330.042969 240.660156 L 323.902344 240.585938 C 313.785156 240.433594 310.9375 238.5625 310.9375 231.816406 C 310.9375 226.5 312.4375 223.949219 317.53125 220.578125 C 326.148438 214.808594 338.960938 210.316406 357.617188 206.417969 C 376.125 202.597656 387.960938 198.402344 407.515625 188.585938 L 424.375 180.195312 L 435.6875 180.195312 L 435.914062 184.839844 C 436.136719 190.160156 434.339844 195.628906 429.171875 204.84375 C 409.988281 238.859375 380.992188 258.566406 344.730469 262.238281 C 337.3125 262.988281 328.847656 263.0625 324.050781 262.460938 Z M 324.050781 262.460938 " fill-opacity="1" fill-rule="nonzero"/><path fill="#ffffff" d="M 200.347656 259.316406 C 197.203125 258.492188 195.03125 256.917969 192.933594 253.847656 C 190.160156 249.726562 189.410156 245.980469 189.710938 237.8125 C 189.933594 230.992188 190.160156 229.945312 192.183594 226.648438 C 195.40625 221.554688 198.777344 219.90625 206.492188 219.90625 C 211.8125 219.90625 212.863281 220.128906 215.632812 222.003906 C 217.65625 223.277344 219.53125 225.449219 220.804688 227.996094 C 222.601562 231.441406 222.828125 232.71875 222.902344 239.386719 C 222.902344 245.304688 222.601562 247.476562 221.476562 249.726562 C 219.679688 253.394531 216.160156 256.917969 213.085938 258.191406 C 209.941406 259.539062 203.347656 260.066406 200.347656 259.316406 Z M 200.347656 259.316406 " fill-opacity="1" fill-rule="nonzero"/><path fill="#ffffff" d="M 133.367188 255.570312 C 121.152344 251.671875 104.519531 241.035156 93.582031 230.09375 C 83.765625 220.28125 76.949219 210.164062 68.40625 193.007812 C 62.863281 181.84375 62.113281 179.894531 62.335938 176.898438 C 62.5625 173.902344 62.789062 173.453125 64.359375 173.226562 C 67.730469 172.703125 70.878906 173.824219 77.921875 178.097656 C 91.183594 185.964844 104.21875 190.984375 118.382812 193.605469 C 127.523438 195.253906 140.785156 196.902344 149.851562 197.425781 C 166.859375 198.402344 166.933594 198.402344 167.832031 201.097656 C 169.179688 205.292969 175.023438 214.433594 180.496094 221.027344 C 185.4375 226.871094 185.8125 227.621094 185.8125 230.917969 C 185.8125 236.613281 184.914062 236.988281 174.199219 236.613281 C 169.253906 236.386719 165.585938 236.3125 165.957031 236.464844 C 166.410156 236.539062 169.628906 237.511719 173.300781 238.636719 L 179.820312 240.585938 L 179.820312 243.804688 C 179.820312 246.203125 179.445312 247.253906 178.546875 247.628906 C 177.796875 248 170.453125 248.453125 162.210938 248.675781 C 146.027344 249.199219 144.15625 249.648438 143.40625 253.097656 C 143.183594 254.21875 142.882812 255.570312 142.65625 256.09375 C 142.28125 257.367188 138.238281 257.144531 133.367188 255.570312 Z M 133.367188 255.570312 " fill-opacity="1" fill-rule="nonzero"/><path fill="#ffffff" d="M 270.855469 222.527344 C 262.539062 218.40625 258.492188 212.039062 258.492188 202.898438 C 258.492188 196.230469 259.914062 193.15625 264.410156 189.933594 C 267.332031 187.910156 268.15625 187.6875 275.199219 187.460938 C 281.71875 187.238281 283.515625 187.386719 287.261719 188.8125 C 292.507812 190.832031 296.777344 194.503906 298.875 198.851562 C 300.074219 201.25 300.449219 203.496094 300.449219 208.367188 C 300.449219 216.457031 299.175781 219.15625 293.707031 222.003906 C 290.183594 223.800781 289.0625 224.027344 281.792969 224.027344 C 275.347656 224.027344 273.25 223.726562 270.855469 222.527344 Z M 270.855469 222.527344 " fill-opacity="1" fill-rule="nonzero"/><path fill="#ffffff" d="M 182.367188 219.605469 C 179.144531 217.65625 175.101562 211.8125 171.054688 203.273438 C 167.980469 196.753906 167.53125 195.179688 167.234375 189.636719 C 166.859375 182.59375 167.15625 182.066406 171.804688 182.066406 C 175.773438 182.066406 178.996094 183.640625 184.839844 188.363281 C 187.6875 190.609375 193.082031 193.980469 196.976562 195.855469 C 206.492188 200.5 206.792969 200.800781 206.792969 206.34375 C 206.792969 210.390625 206.492188 211.289062 204.394531 213.835938 C 203.121094 215.410156 200.5 217.730469 198.625 218.855469 C 195.777344 220.730469 194.503906 221.027344 190.011719 221.027344 C 186.113281 221.027344 184.089844 220.652344 182.367188 219.605469 Z M 182.367188 219.605469 " fill-opacity="1" fill-rule="nonzero"/><path fill="#ffffff" d="M 225.449219 218.855469 C 218.855469 217.507812 214.734375 213.085938 213.910156 206.417969 C 212.9375 198.777344 215.035156 193.304688 220.203125 189.785156 C 223.875 187.3125 227.246094 186.5625 234.890625 186.5625 C 247.253906 186.636719 252.496094 191.058594 252.496094 201.398438 C 252.421875 208.816406 248.824219 214.210938 241.632812 217.355469 C 238.1875 218.855469 229.421875 219.679688 225.449219 218.855469 Z M 225.449219 218.855469 " fill-opacity="1" fill-rule="nonzero"/><path fill="#ffffff" d="M 307.566406 214.210938 C 304.195312 210.164062 302.695312 206.195312 302.695312 201.023438 C 302.695312 196.378906 302.695312 196.378906 306.292969 193.304688 C 309.964844 190.234375 342.632812 167.757812 346.378906 165.808594 C 347.578125 165.210938 349.898438 164.835938 351.621094 164.984375 C 354.769531 165.210938 354.769531 165.210938 354.996094 168.507812 C 355.667969 177.722656 346.378906 195.855469 335.214844 206.941406 C 328.621094 213.609375 323.824219 215.933594 315.734375 216.382812 L 309.738281 216.683594 Z M 307.566406 214.210938 " fill-opacity="1" fill-rule="nonzero"/><path fill="#ffffff" d="M 197.054688 191.132812 C 187.238281 188.136719 181.394531 180.496094 174.277344 161.386719 C 170.15625 150.300781 167.605469 140.859375 165.585938 129.246094 C 164.160156 120.929688 162.4375 112.988281 156.445312 86.914062 C 154.796875 79.570312 154.121094 74.773438 154.046875 69.230469 C 153.972656 59.714844 154.34375 59.191406 160.714844 59.191406 C 165.285156 59.191406 165.585938 59.339844 169.332031 62.636719 C 171.429688 64.585938 175.398438 69.082031 178.171875 72.601562 C 187.613281 84.816406 194.128906 91.859375 213.460938 110.738281 C 232.867188 129.546875 239.085938 136.738281 245.078125 147.003906 C 249.875 155.09375 251.148438 160.039062 250.847656 168.65625 C 250.625 174.800781 250.398438 176.222656 248.75 178.546875 C 246.203125 182.292969 241.933594 184.316406 236.539062 184.316406 C 231.21875 184.316406 227.921875 182.96875 222.152344 178.472656 C 218.03125 175.25 217.808594 175.175781 219.378906 177.347656 C 221.703125 180.644531 221.703125 186.414062 219.304688 188.660156 C 218.332031 189.636719 216.382812 190.683594 214.960938 191.058594 C 212.039062 191.957031 199.824219 191.957031 197.054688 191.132812 Z M 197.054688 191.132812 " fill-opacity="1" fill-rule="nonzero"/><path fill="#ffffff" d="M 292.207031 189.785156 C 291.609375 189.558594 290.335938 188.660156 289.433594 187.835938 C 287.5625 186.113281 287.113281 181.542969 288.460938 177.945312 C 289.136719 176.074219 288.984375 176.148438 284.941406 179.070312 C 275.800781 185.589844 264.335938 186.113281 261.636719 180.195312 C 260.289062 177.199219 260.515625 169.105469 262.085938 164.984375 C 263.886719 160.414062 266.734375 156.144531 275.125 145.878906 C 278.796875 141.382812 292.28125 123.027344 305.09375 105.042969 C 317.90625 86.988281 329.59375 71.179688 331.019531 69.90625 C 333.191406 67.730469 334.015625 67.433594 337.539062 67.433594 C 344.207031 67.433594 344.28125 68.332031 340.910156 95.003906 C 337.238281 123.625 334.015625 139.285156 328.171875 156.144531 C 321.054688 176.824219 314.761719 185.8125 305.167969 189.261719 C 302.324219 190.234375 294.378906 190.609375 292.207031 189.785156 Z M 292.207031 189.785156 " fill-opacity="1" fill-rule="nonzero"/><path fill="#ffd600" d="M 226.648438 489.933594 C 177.796875 485.363281 131.195312 465.582031 92.90625 433.066406 C 45.03125 392.457031 15.285156 335.363281 8.917969 271.679688 C 7.640625 258.640625 8.390625 227.171875 10.339844 214.660156 C 17.15625 170.828125 33.566406 133.214844 60.6875 98.824219 C 68.632812 88.785156 88.785156 68.632812 98.824219 60.6875 C 128.195312 37.539062 162.4375 21.128906 197.578125 13.488281 C 213.761719 9.964844 223.800781 8.839844 243.582031 8.464844 C 263.8125 8.015625 273.328125 8.617188 289.585938 11.3125 C 357.992188 22.703125 419.429688 64.359375 455.617188 124 C 478.921875 162.511719 490.757812 204.621094 490.757812 249.5 C 490.757812 325.921875 455.320312 396.429688 393.730469 442.808594 C 358.140625 469.628906 315.507812 485.886719 270.480469 490.007812 C 260.515625 490.910156 236.464844 490.832031 226.648438 489.933594 Z M 199.074219 446.777344 C 204.917969 442.808594 209.714844 435.6875 217.582031 419.429688 C 221.703125 411.039062 232.792969 393.65625 243.058594 379.496094 C 245.753906 375.824219 249.050781 370.503906 250.398438 367.730469 C 252.648438 363.085938 253.097656 362.636719 255.121094 362.636719 C 257.144531 362.636719 257.667969 363.238281 260.363281 368.03125 C 272.953125 390.734375 312.585938 428.121094 337.164062 440.558594 C 342.933594 443.480469 345.402344 443.40625 348.777344 440.484375 C 352.597656 437.039062 353.421875 433.441406 351.773438 425.949219 C 350.050781 417.933594 347.203125 411.1875 334.464844 385.1875 C 322.703125 361.214844 321.726562 358.140625 325.921875 358.140625 C 327.121094 358.140625 329.746094 359.117188 331.769531 360.390625 C 338.285156 364.359375 340.609375 365.109375 343.082031 363.835938 C 344.429688 363.085938 345.703125 361.511719 346.453125 359.566406 C 347.578125 356.792969 347.652344 355.667969 346.828125 351.097656 C 346.378906 348.175781 345.03125 343.082031 343.832031 339.859375 C 342.632812 336.5625 341.65625 332.742188 341.65625 331.394531 C 341.65625 328.996094 341.808594 328.921875 344.503906 328.921875 C 346.003906 328.921875 351.324219 329.59375 356.269531 330.417969 C 370.429688 332.816406 387.363281 334.765625 401.671875 335.738281 C 416.507812 336.714844 437.261719 336.339844 441.53125 334.988281 C 444.980469 333.867188 449.027344 330.417969 450.300781 327.496094 C 451.125 325.550781 450.972656 324.875 449.101562 321.429688 C 443.179688 310.5625 417.109375 291.609375 389.234375 277.972656 C 379.496094 273.175781 364.511719 267.480469 361.589844 267.480469 C 360.539062 267.480469 360.3125 266.882812 360.539062 264.785156 L 360.765625 262.085938 L 368.632812 259.316406 C 390.359375 251.597656 408.566406 237.8125 421.828125 218.929688 C 432.316406 204.019531 437.9375 193.007812 438.835938 185.8125 C 439.210938 182.367188 439.136719 181.992188 436.589844 179.445312 C 432.09375 174.949219 429.621094 175.550781 406.09375 187.238281 C 396.652344 191.957031 386.464844 196.453125 381.519531 198.027344 C 372.675781 200.875 354.019531 205.144531 347.128906 205.820312 L 343.15625 206.195312 L 343.15625 203.570312 C 343.15625 201.773438 344.054688 199.675781 345.855469 196.976562 C 353.347656 185.964844 359.039062 168.582031 356.566406 164.160156 C 355.96875 163.113281 354.695312 162.136719 353.796875 161.988281 C 351.546875 161.613281 344.355469 165.058594 336.1875 170.304688 C 331.992188 173.078125 328.847656 174.574219 327.421875 174.574219 C 325.324219 174.574219 325.175781 174.351562 325.175781 171.953125 C 325.175781 170.53125 326 167.53125 326.972656 165.210938 C 329.894531 158.617188 335.363281 141.234375 337.460938 131.867188 C 340.234375 119.429688 342.183594 106.617188 343.90625 89.761719 C 345.929688 69.832031 345.929688 67.882812 343.457031 65.410156 C 341.957031 63.910156 341.132812 63.613281 339.183594 63.984375 C 332.515625 65.335938 326.597656 72.152344 300.449219 108.265625 C 293.257812 118.15625 283.890625 131.117188 279.546875 137.113281 C 275.199219 143.105469 269.128906 151.273438 266.058594 155.246094 C 260.738281 161.988281 260.140625 162.511719 257.667969 162.585938 C 255.042969 162.585938 255.042969 162.585938 250.847656 154.121094 C 243.429688 139.285156 239.535156 134.566406 212.785156 107.890625 C 194.730469 89.910156 186.5625 81.21875 181.542969 74.550781 C 170.828125 60.316406 163.859375 54.769531 158.617188 56.269531 C 155.09375 57.242188 152.324219 60.390625 151.347656 64.511719 C 150.222656 69.082031 150.898438 73.425781 156.21875 96.578125 C 158.464844 106.320312 160.863281 117.484375 161.539062 121.378906 C 164.609375 139.136719 170.828125 160.339844 175.773438 170.230469 C 176.75 172.175781 177.570312 174.949219 177.570312 176.296875 L 177.570312 178.921875 L 173.375 179.21875 C 170.003906 179.519531 168.804688 179.96875 166.859375 181.917969 C 164.761719 184.015625 164.460938 184.839844 164.234375 189.558594 L 163.9375 194.804688 L 158.839844 194.804688 C 145.652344 194.804688 121.753906 192.03125 109.539062 189.1875 C 100.398438 187.011719 95.230469 184.988281 78.894531 177.273438 C 72.226562 174.125 65.785156 171.355469 64.511719 171.128906 C 61.8125 170.53125 59.191406 172.402344 59.191406 174.726562 C 59.191406 178.847656 70.128906 201.546875 77.398438 212.5625 C 86.914062 226.949219 96.355469 236.386719 110.8125 245.902344 C 121.976562 253.246094 136.738281 259.988281 141.757812 259.988281 C 142.808594 259.988281 143.105469 260.589844 143.105469 262.835938 C 143.105469 265.460938 142.808594 265.757812 138.011719 268.53125 C 117.855469 280.292969 97.027344 305.84375 83.839844 335.214844 C 80.246094 343.082031 77.171875 354.46875 77.171875 359.640625 C 77.171875 363.3125 78.820312 366.382812 81.742188 367.882812 C 84.589844 369.457031 91.558594 365.335938 103.394531 355.144531 C 111.636719 348.101562 119.355469 342.78125 130.96875 336.414062 C 142.730469 329.894531 161.464844 321.429688 164.085938 321.429688 C 166.183594 321.429688 166.332031 321.652344 166.332031 324.125 C 166.332031 325.625 165.210938 329.371094 163.785156 332.515625 C 160.113281 340.984375 155.992188 354.09375 154.644531 362.039062 C 152.472656 374.699219 154.34375 386.089844 159.214844 389.308594 C 161.839844 391.035156 165.585938 389.910156 171.429688 385.488281 C 174.574219 383.089844 176.597656 382.117188 178.320312 382.117188 L 180.792969 382.117188 L 180.34375 392.832031 C 179.746094 406.394531 180.867188 429.09375 182.441406 434.941406 C 184.613281 443.257812 189.335938 448.726562 194.128906 448.800781 C 195.179688 448.800781 197.425781 447.902344 199.074219 446.777344 Z M 199.074219 446.777344 " fill-opacity="1" fill-rule="nonzero"/><path fill="#000000" d="M 191.433594 451.125 C 185.964844 449.773438 182.367188 445.277344 180.195312 437.1875 C 178.621094 431.195312 177.347656 406.769531 178.023438 394.105469 C 178.472656 385.5625 178.394531 384.140625 177.496094 384.816406 C 171.726562 389.386719 168.582031 391.257812 165.132812 392.308594 C 161.3125 393.429688 160.863281 393.355469 158.242188 392.082031 C 153.746094 389.910156 151.871094 385.265625 151.5 375.074219 C 150.972656 361.886719 154.496094 346.304688 161.613281 330.195312 C 163.035156 326.972656 164.085938 324.199219 163.9375 324.050781 C 163.488281 323.601562 140.484375 334.613281 132.542969 338.960938 C 121.304688 345.253906 113.734375 350.425781 105.644531 357.390625 C 90.285156 370.652344 83.167969 373.574219 77.921875 368.855469 C 74.550781 365.785156 73.875 361.8125 75.300781 353.421875 C 76.875 344.355469 79.421875 337.085938 84.664062 326.523438 C 98.824219 298.277344 117.707031 276.472656 137.636719 265.160156 C 141.082031 263.210938 141.683594 262.238281 139.511719 262.238281 C 134.492188 262.238281 119.730469 255.496094 108.566406 248.152344 C 94.105469 238.636719 84.664062 229.195312 75.148438 214.808594 C 70.128906 207.167969 62.335938 192.183594 58.816406 183.191406 C 54.921875 173.375 56.417969 168.132812 63.160156 168.28125 C 66.535156 168.355469 70.054688 169.78125 88.261719 178.246094 C 100.023438 183.714844 107.96875 186.414062 118.15625 188.363281 C 125.800781 189.785156 141.984375 191.582031 153.148438 192.257812 L 161.988281 192.78125 L 161.539062 190.535156 C 160.789062 187.164062 162.4375 181.769531 164.910156 179.371094 C 166.558594 177.796875 167.980469 177.273438 171.203125 176.972656 C 173.453125 176.824219 175.324219 176.523438 175.324219 176.296875 C 175.324219 176.148438 174.5 174.425781 173.527344 172.476562 C 168.582031 162.585938 162.363281 141.382812 159.289062 123.625 C 158.617188 119.730469 156.144531 108.417969 153.894531 98.527344 C 148.726562 76.199219 147.753906 69.007812 148.949219 63.085938 C 150.074219 57.617188 153.296875 54.320312 158.390625 53.570312 C 165.882812 52.449219 172.476562 57.242188 183.792969 72.226562 C 188.886719 78.972656 196.828125 87.511719 215.035156 105.644531 C 241.78125 132.316406 245.679688 137.039062 253.097656 151.949219 C 255.417969 156.519531 257.441406 160.339844 257.667969 160.339844 C 258.339844 160.265625 268.304688 147.300781 277.296875 134.863281 C 281.644531 128.871094 291.007812 115.910156 298.203125 106.019531 C 323.527344 71.027344 329.671875 63.910156 336.339844 61.886719 C 342.40625 60.089844 346.304688 61.738281 347.652344 66.683594 C 349.074219 72.003906 344.128906 114.1875 339.710938 134.117188 C 337.613281 143.480469 332.140625 160.863281 329.21875 167.457031 C 328.246094 169.78125 327.421875 171.804688 327.421875 171.953125 C 327.421875 172.175781 330.34375 170.378906 334.015625 168.058594 C 341.957031 162.886719 348.925781 159.589844 352.820312 159.066406 C 355.292969 158.691406 356.117188 158.992188 357.691406 160.5625 C 359.265625 162.136719 359.640625 163.261719 359.640625 166.332031 C 359.640625 175.699219 354.917969 189.261719 348.101562 199.226562 C 346.601562 201.472656 345.480469 203.421875 345.703125 203.570312 C 345.855469 203.722656 347.277344 203.570312 348.851562 203.121094 C 350.5 202.746094 356.042969 201.546875 361.214844 200.5 C 375.824219 197.578125 386.164062 193.832031 403.847656 185.066406 C 421.679688 176.222656 422.875 175.699219 428.046875 174.574219 C 434.789062 173.152344 440.035156 175.925781 441.308594 181.84375 C 443.179688 189.859375 435.089844 206.941406 420.328125 226.273438 C 408.566406 241.632812 390.132812 254.820312 371.253906 261.414062 C 367.582031 262.6875 363.984375 263.960938 363.386719 264.1875 C 362.785156 264.410156 365.109375 265.460938 368.554688 266.433594 C 390.433594 272.800781 426.398438 293.480469 442.730469 309.066406 C 452.847656 318.730469 455.542969 325.398438 451.648438 331.167969 C 447.378906 337.386719 442.582031 338.660156 422.953125 338.660156 C 400.921875 338.660156 380.917969 336.9375 355.96875 332.964844 C 349.601562 331.992188 344.28125 331.242188 344.128906 331.394531 C 343.980469 331.542969 344.730469 334.015625 345.855469 336.863281 C 348.027344 342.78125 349.898438 351.546875 349.898438 356.117188 C 349.898438 357.839844 349.226562 360.613281 348.476562 362.335938 C 345.855469 368.179688 339.859375 368.554688 331.09375 363.535156 C 328.246094 361.886719 325.921875 360.613281 325.921875 360.6875 C 325.921875 360.839844 330.792969 370.804688 336.714844 382.941406 C 349.300781 408.640625 352.296875 415.535156 354.019531 423.625 C 357.019531 437.113281 353.046875 445.503906 343.679688 445.355469 C 339.035156 445.28125 333.789062 442.808594 323.300781 435.6875 C 297.453125 418.230469 270.703125 391.558594 259.015625 371.777344 L 255.042969 365.035156 L 252.570312 370.054688 C 251.296875 372.75 248 378.070312 245.304688 381.742188 C 234.589844 396.503906 224.027344 413.210938 218.929688 423.402344 C 207.765625 446.027344 200.5 453.296875 191.433594 451.125 Z M 198.175781 441.53125 C 201.324219 438.386719 203.722656 434.566406 211.289062 420.703125 C 219.605469 405.417969 227.097656 393.507812 235.488281 382.042969 C 246.578125 366.90625 248 363.238281 246.503906 354.621094 C 244.480469 342.632812 239.308594 336.789062 234.066406 340.460938 C 231.894531 342.03125 224.398438 353.496094 220.28125 361.589844 C 216.832031 368.257812 212.5625 378.671875 210.089844 386.464844 C 209.414062 388.5625 208.667969 390.359375 208.441406 390.359375 C 207.617188 390.359375 209.039062 381.441406 210.914062 375 C 213.535156 366.007812 217.207031 357.542969 223.425781 345.929688 C 229.046875 335.589844 230.167969 332.066406 228.296875 330.496094 C 226.347656 328.921875 224.398438 330.644531 219.457031 338.136719 C 212.785156 348.027344 204.621094 358.066406 195.703125 367.28125 C 189.933594 373.203125 187.761719 375.972656 187.164062 378.144531 C 186.039062 382.566406 185.515625 415.085938 186.488281 425.199219 C 187.386719 435.839844 188.285156 439.359375 190.683594 441.757812 C 193.082031 444.15625 195.628906 444.003906 198.175781 441.53125 Z M 345.855469 436.960938 C 348.699219 435.164062 347.128906 424.074219 342.480469 413.359375 C 338.886719 404.96875 327.945312 382.566406 320.378906 368.03125 C 313.785156 355.371094 309.816406 349.824219 305.09375 346.828125 C 300.824219 344.128906 298.425781 344.054688 297.378906 346.453125 C 295.730469 349.976562 297.300781 354.917969 305.019531 369.980469 C 309.140625 377.996094 312.363281 384.890625 312.210938 385.339844 C 311.6875 386.914062 302.023438 372.453125 291.832031 354.84375 C 282.992188 339.558594 281.71875 337.761719 278.644531 336.1875 C 273.476562 333.640625 269.429688 337.011719 264.558594 347.875 C 261.488281 354.695312 261.1875 356.71875 262.539062 361.363281 C 263.8125 365.632812 271.304688 377.546875 277.074219 384.367188 C 292.65625 402.570312 317.234375 423.476562 336.113281 434.566406 C 341.058594 437.414062 344.054688 438.160156 345.855469 436.960938 Z M 172.101562 378.96875 C 180.121094 372.601562 193.90625 358.515625 201.472656 348.925781 C 221.179688 324.050781 228.070312 307.191406 219.605469 304.34375 C 213.535156 302.324219 205.96875 309.515625 191.582031 331.242188 C 186.9375 338.210938 183.566406 341.957031 183.566406 340.085938 C 183.566406 339.484375 185.738281 335.140625 188.4375 330.417969 C 195.40625 318.207031 198.777344 311.089844 198.25 309.816406 C 197.503906 307.867188 192.480469 308.390625 188.585938 310.9375 C 175.25 319.332031 165.808594 335.214844 160.789062 357.390625 C 158.390625 368.03125 158.390625 382.34375 160.789062 384.738281 C 162.289062 386.238281 164.234375 385.1875 172.101562 378.96875 Z M 86.914062 361.886719 C 90.058594 360.3125 96.054688 355.667969 102.574219 349.675781 C 112.3125 340.910156 132.167969 329.59375 162.960938 315.507812 C 185.890625 304.945312 190.535156 302.472656 194.128906 299.027344 C 196.078125 297.152344 197.875 294.679688 198.175781 293.554688 C 198.925781 290.632812 196.527344 286.136719 193.304688 284.492188 C 189.785156 282.691406 179.894531 283.140625 173.078125 285.390625 C 164.910156 288.160156 153.148438 294.378906 144.457031 300.597656 C 139.960938 303.894531 135.839844 306.367188 135.390625 306.21875 C 134.117188 305.769531 143.105469 297.527344 151.722656 291.234375 C 160.265625 285.089844 165.585938 280.144531 165.585938 278.570312 C 165.585938 272.726562 151.347656 268.457031 142.957031 271.753906 C 138.238281 273.550781 130.667969 278.722656 124.75 284.117188 C 107.441406 300 88.113281 331.320312 83.542969 351.023438 C 82.269531 356.71875 82.042969 363.386719 83.167969 363.386719 C 83.617188 363.386719 85.265625 362.710938 86.914062 361.886719 Z M 342.332031 358.964844 C 342.855469 358.066406 342.855469 356.042969 342.40625 353.269531 C 339.785156 337.238281 331.992188 324.5 313.785156 306.742188 C 299.925781 293.257812 294.90625 290.558594 292.28125 295.28125 C 290.410156 298.652344 291.757812 300.824219 301.574219 310.339844 C 310.039062 318.507812 315.957031 325.625 315.058594 326.523438 C 314.910156 326.746094 312.738281 325.175781 310.339844 323.078125 C 303.972656 317.53125 291.984375 309.738281 287.710938 308.316406 C 284.414062 307.191406 283.890625 307.191406 281.792969 308.316406 C 277.820312 310.339844 277.972656 314.835938 282.09375 320.230469 C 284.191406 323 299.851562 334.164062 312.738281 342.03125 C 317.15625 344.730469 323.976562 349.300781 327.871094 352.222656 C 339.558594 360.839844 340.984375 361.511719 342.332031 358.964844 Z M 257.515625 345.253906 C 258.417969 344.28125 260.289062 341.207031 261.714844 338.285156 C 263.136719 335.4375 265.832031 331.019531 267.707031 328.472656 C 272.203125 322.402344 272.726562 321.277344 272.726562 317.980469 C 272.726562 313.785156 268.457031 310.039062 260.964844 307.640625 C 252.421875 304.945312 246.429688 303.972656 241.183594 304.34375 C 237.136719 304.644531 236.238281 304.945312 234.441406 307.042969 C 230.320312 311.6875 231.742188 317.683594 239.609375 329.445312 C 245.902344 338.8125 249.949219 343.757812 252.722656 345.480469 C 255.71875 347.277344 255.644531 347.277344 257.515625 345.253906 Z M 442.207031 329.371094 C 446.851562 327.121094 446.703125 325.023438 441.609375 318.65625 C 436.363281 312.210938 418.605469 299.476562 400.097656 289.0625 C 382.941406 279.320312 368.855469 273.699219 355.144531 271.230469 C 337.761719 268.15625 318.65625 267.480469 310.789062 269.878906 C 304.421875 271.753906 301.273438 277.449219 303.820312 282.691406 C 305.992188 287.261719 310.113281 290.558594 319.554688 295.203125 C 329.070312 299.925781 336.488281 302.472656 352.597656 306.742188 C 363.085938 309.515625 368.40625 311.386719 367.65625 312.136719 C 367.058594 312.8125 353.046875 311.089844 344.503906 309.367188 C 335.738281 307.566406 329.820312 307.71875 328.621094 309.664062 C 327.945312 310.863281 328.320312 311.539062 331.09375 314.011719 C 339.261719 321.351562 353.871094 325.625 381.292969 328.621094 C 397.476562 330.34375 410.964844 331.019531 425.949219 330.867188 C 437.113281 330.71875 439.882812 330.496094 442.207031 329.371094 Z M 278.195312 298.574219 C 289.0625 293.480469 291.457031 283.140625 283.515625 275.273438 C 278.046875 269.804688 269.355469 269.355469 259.988281 274.074219 C 252.648438 277.746094 249.425781 284.941406 252.046875 291.683594 C 253.546875 295.652344 256.617188 298.726562 260.4375 300.148438 C 264.785156 301.796875 273.027344 301.046875 278.195312 298.574219 Z M 230.394531 297.976562 C 237.289062 295.28125 239.910156 292.132812 240.359375 286.0625 C 241.109375 275.722656 232.792969 267.332031 220.503906 266.207031 C 216.457031 265.832031 215.335938 266.058594 211.886719 267.707031 C 205.292969 271.003906 202.371094 277.074219 203.871094 284.414062 C 204.996094 290.183594 208.515625 294.304688 214.886719 297.527344 C 218.105469 299.101562 226.796875 299.398438 230.394531 297.976562 Z M 194.355469 272.050781 C 196.453125 270.328125 195.703125 267.855469 191.808594 263.4375 C 189.710938 261.039062 187.613281 258.265625 187.011719 257.144531 C 184.691406 252.648438 183.640625 252.273438 175.175781 252.871094 C 170.902344 253.171875 163.335938 253.394531 158.316406 253.320312 C 148.652344 253.171875 147.828125 253.394531 148.652344 256.691406 C 149.773438 261.1875 157.117188 266.882812 165.433594 269.878906 C 175.101562 273.25 191.359375 274.523438 194.355469 272.050781 Z M 258.867188 266.65625 C 263.585938 264.410156 268.90625 259.164062 271.226562 254.371094 C 273.625 249.425781 274.226562 240.058594 272.351562 234.589844 C 270.703125 229.570312 265.609375 223.949219 260.589844 221.703125 C 255.121094 219.230469 246.203125 219.230469 241.109375 221.703125 C 236.089844 224.175781 231.441406 228.445312 228.894531 233.089844 C 227.023438 236.539062 226.648438 238.1875 226.421875 243.957031 C 226.125 250.175781 226.273438 251.222656 228.148438 255.417969 C 230.621094 260.8125 235.863281 265.984375 240.734375 267.78125 C 245.230469 269.503906 254.070312 268.90625 258.867188 266.65625 Z M 298.425781 264.1875 C 309.441406 259.613281 310.265625 235.113281 299.625 229.570312 C 296.027344 227.773438 290.410156 228.070312 286.960938 230.320312 C 280.894531 234.289062 277.597656 247.101562 280.59375 254.96875 C 282.167969 259.089844 285.765625 262.761719 289.660156 264.109375 C 293.40625 265.460938 295.429688 265.460938 298.425781 264.1875 Z M 342.480469 259.988281 C 368.105469 257.367188 390.734375 246.503906 407.964844 228.445312 C 420.628906 215.257812 434.339844 191.882812 433.664062 184.839844 C 433.441406 182.515625 433.367188 182.441406 429.917969 182.515625 C 426.996094 182.515625 423.625 183.941406 409.691406 190.910156 C 390.210938 200.648438 377.171875 205.292969 358.515625 209.039062 C 334.164062 213.910156 315.210938 222.675781 313.484375 229.796875 C 312.136719 234.964844 316.484375 238.261719 324.5 238.261719 C 334.464844 238.261719 353.796875 233.839844 367.207031 228.519531 C 375.449219 225.222656 375.375 225.222656 375.375 226.273438 C 375.375 227.171875 362.785156 233.242188 352.972656 237.0625 C 349.152344 238.636719 340.234375 241.183594 333.265625 242.90625 C 322.101562 245.527344 320.304688 246.203125 318.054688 248.375 C 316.109375 250.175781 315.433594 251.449219 315.433594 253.171875 C 315.433594 256.09375 318.28125 259.015625 321.726562 259.613281 C 329.371094 260.8125 333.191406 260.890625 342.480469 259.988281 Z M 213.386719 254.519531 C 226.199219 245.828125 221.179688 222.152344 206.492188 222.152344 C 201.25 222.152344 197.203125 224.402344 194.429688 228.894531 C 189.558594 236.761719 191.65625 250.472656 198.550781 255.269531 C 202.449219 257.96875 208.667969 257.667969 213.386719 254.519531 Z M 140.859375 252.046875 C 140.859375 249.648438 143.183594 247.402344 146.253906 246.953125 C 147.601562 246.726562 154.644531 246.429688 161.839844 246.277344 C 169.03125 246.128906 175.550781 245.753906 176.296875 245.378906 C 179.070312 244.179688 177.496094 242.757812 171.054688 240.882812 C 159.214844 237.363281 147.378906 232.941406 139.734375 229.195312 C 131.269531 225.074219 120.628906 218.480469 120.628906 217.28125 C 120.628906 216.609375 122.277344 217.207031 133.367188 222.378906 C 151.5 230.769531 178.769531 236.914062 182.292969 233.464844 C 182.96875 232.71875 183.566406 231.59375 183.566406 230.917969 C 183.566406 230.167969 181.167969 226.722656 178.246094 223.277344 C 172.777344 216.683594 166.933594 207.542969 165.585938 203.347656 C 164.683594 200.648438 164.609375 200.648438 147.601562 199.675781 C 132.390625 198.777344 114.558594 196.003906 103.621094 192.855469 C 95.828125 190.609375 84.367188 185.515625 76.949219 181.019531 C 67.65625 175.398438 64.433594 174.351562 64.433594 177.199219 C 64.433594 179.296875 77.246094 203.871094 82.492188 211.664062 C 92.683594 227.023438 107.515625 239.910156 125.125 248.824219 C 131.71875 252.121094 139.285156 254.820312 140.335938 254.21875 C 140.632812 254.070312 140.859375 253.097656 140.859375 252.046875 Z M 291.457031 219.753906 C 296.328125 217.132812 298.203125 214.0625 298.203125 208.367188 C 298.203125 197.277344 287.9375 188.960938 275.125 189.785156 C 270.628906 190.011719 269.128906 190.460938 266.582031 192.257812 C 256.617188 199.300781 259.988281 213.835938 273.101562 220.28125 C 277.820312 222.675781 286.363281 222.378906 291.457031 219.753906 Z M 196.378906 216.609375 C 203.421875 212.1875 206.492188 205.820312 203.195312 202.746094 C 202.449219 202.074219 198.625 199.976562 194.730469 198.101562 C 190.835938 196.230469 185.4375 192.855469 182.59375 190.609375 C 176.898438 185.964844 172.925781 184.015625 170.679688 184.765625 C 165.507812 186.414062 176.671875 212.5625 184.613281 217.359375 C 188.0625 219.457031 192.40625 219.15625 196.378906 216.609375 Z M 240.285156 214.585938 C 252.648438 208.742188 253.394531 194.355469 241.632812 189.859375 C 237.136719 188.210938 228.597656 188.660156 224.324219 190.910156 C 218.179688 194.054688 215.109375 200.050781 216.457031 206.117188 C 218.632812 215.785156 229.496094 219.679688 240.285156 214.585938 Z M 323.824219 211.738281 C 334.164062 206.867188 347.875 188.0625 351.847656 173.375 C 353.421875 167.457031 352.746094 166.183594 349 167.980469 C 345.402344 169.707031 312.660156 192.03125 308.542969 195.554688 C 305.617188 198.027344 304.945312 199.074219 304.945312 201.023438 C 304.945312 204.019531 307.042969 208.667969 309.816406 211.960938 C 311.835938 214.359375 312.136719 214.433594 315.882812 214.0625 C 317.980469 213.835938 321.578125 212.785156 323.824219 211.738281 Z M 212.710938 188.8125 C 215.785156 187.910156 218.78125 185.289062 218.78125 183.492188 C 218.78125 182.742188 216.457031 178.546875 213.535156 174.199219 C 204.394531 160.339844 195.777344 142.808594 196.453125 139.433594 C 196.601562 138.761719 198.402344 141.382812 200.425781 145.203125 C 207.765625 158.992188 222.378906 176.222656 230.09375 180.121094 C 234.816406 182.441406 237.511719 182.59375 241.558594 180.570312 C 250.625 176.148438 251.148438 163.488281 242.832031 149.25 C 236.839844 138.984375 230.621094 131.792969 211.214844 112.988281 C 191.882812 94.105469 185.363281 87.0625 175.925781 74.851562 C 169.105469 66.007812 163.859375 61.4375 160.714844 61.4375 C 159.367188 61.4375 157.792969 61.964844 157.265625 62.710938 C 155.621094 64.660156 156.21875 73.425781 158.765625 84.664062 C 159.964844 90.210938 162.210938 100.023438 163.636719 106.394531 C 165.058594 112.761719 167.007812 122.054688 167.832031 126.996094 C 169.855469 138.609375 172.402344 148.050781 176.523438 159.140625 C 183.640625 178.246094 189.484375 185.890625 199.300781 188.886719 C 201.996094 189.710938 209.789062 189.710938 212.710938 188.8125 Z M 302.921875 187.011719 C 312.511719 183.566406 318.804688 174.574219 325.921875 153.894531 C 331.84375 136.8125 335.4375 119.355469 339.035156 89.609375 C 340.609375 77.097656 340.910156 72.828125 340.234375 71.476562 C 339.109375 68.929688 336.339844 69.15625 333.265625 72.152344 C 331.84375 73.425781 320.15625 89.234375 307.34375 107.292969 C 294.53125 125.273438 281.042969 143.632812 277.371094 148.125 C 273.777344 152.546875 269.65625 157.867188 268.230469 159.890625 C 259.464844 172.777344 262.164062 184.015625 273.476562 181.320312 C 283.441406 178.921875 293.78125 168.207031 302.171875 151.722656 C 305.09375 145.953125 306.894531 143.257812 307.417969 143.855469 C 308.464844 144.90625 299.699219 164.460938 294.53125 172.703125 C 292.882812 175.25 291.160156 178.695312 290.632812 180.417969 C 289.808594 183.265625 289.886719 183.714844 291.160156 185.140625 C 293.855469 188.136719 297.902344 188.8125 302.921875 187.011719 Z M 302.921875 187.011719 " fill-opacity="1" fill-rule="nonzero"/></svg>